<svg xmlns="http://www.w3.org/2000/svg" height="256" viewBox="0 0 256 256" width="256">
    <defs>
        <style>.cls-1{fill:#fff;}.cls-2{fill:#2f003f;}.cls-3{fill:#ffc249;}</style>
    </defs>
    <title>计划排期</title>
    <g transform="matrix(0.32680573,0,0,0.32680573,-39.324533,-39.324533)">
        <g data-name="图层 12" id="图层_12">
            <path class="cls-1" d="M160.33,277.21v38.15H863.67V277.21c0-31.68-24-57.45-53.51-57.45H213.84C184.34,219.76,160.33,245.53,160.33,277.21Z"/>
            <path class="cls-1" d="M863.67,746.79V355.36H160.33V746.79c0,31.68,24,57.45,53.51,57.45H810.16C839.66,804.24,863.67,778.47,863.67,746.79Zm-625.57-268V442.66a30,30,0,0,1,30-30H425a30,30,0,0,1,30,30v36.16a30,30,0,0,1-30,29.95H268.06A30,30,0,0,1,238.1,478.82ZM408.92,598.57V562.41a30,30,0,0,1,30-30H595.43a30,30,0,0,1,30,30v36.16a30,30,0,0,1-30,30H438.88A30,30,0,0,1,408.92,598.57Zm377,121.17a30,30,0,0,1-30,30H599.39a30,30,0,0,1-29.95-30V683.58a30,30,0,0,1,29.95-30H755.94a30,30,0,0,1,30,30Z"/>
            <path class="cls-2" d="M810.16,179.76H213.84c-51.56,0-93.51,43.72-93.51,97.45V746.79c0,53.73,42,97.45,93.51,97.45H810.16c51.56,0,93.51-43.72,93.51-97.45V277.21C903.67,223.48,861.72,179.76,810.16,179.76ZM213.84,804.24c-29.5,0-53.51-25.77-53.51-57.45V355.36H863.67V746.79c0,31.68-24,57.45-53.51,57.45ZM810.16,219.76c29.5,0,53.51,25.77,53.51,57.45v38.15H160.33V277.21c0-31.68,24-57.45,53.51-57.45Z"/>
            <rect height="96.07" class="cls-3" y="412.7" rx="29.96" x="238.1" width="216.81"/>
            <rect height="96.07" class="cls-3" y="532.45" rx="29.96" x="408.92" width="216.46"/>
            <rect height="96.07" class="cls-3" y="653.63" rx="29.96" x="569.44" width="216.46"/>
        </g>
    </g>
</svg>
